{
	"scenes":[{
		"nodes":[0]
	}],
	"asset":{
		"version":"2.0",
		"generator":"Created using the official Cinema 4D glTF Exporter 1.000x284978"
	},
	"nodes":[{
		"name":"Default",
		"translation":[0.0,
		0.0,
		0.0],
		"rotation":[0.7071067690849304,
		0.0,
		0.0,
		-0.7071067690849304],
		"scale":[1.0,
		1.0,
		1.0],
		"mesh":0
	}],
	"accessors":[{
		"bufferView":0,
		"type":"SCALAR",
		"min":[0],
		"componentType":5123,
		"count":7497,
		"byteOffset":0,
		"max":[4008]
	},
	{
		"bufferView":1,
		"type":"VEC3",
		"min":[-10.251649856567383,
		-3.4073188304901125,
		0.007899999618530274],
		"componentType":5126,
		"count":4009,
		"byteOffset":0,
		"max":[6.030399799346924,
		-1.5081062316894532,
		4.2582502365112309]
	},
	{
		"bufferView":1,
		"type":"VEC3",
		"min":[-1.0,
		-1.0,
		-1.0],
		"componentType":5126,
		"count":4009,
		"byteOffset":12,
		"max":[1.0,
		1.0,
		1.0]
	}],
	"meshes":[{
		"name":"Default",
		"primitives":[{
			"attributes":{
				"POSITION":1,
				"NORMAL":2
			},
			"indices":0
		}]
	}],
	"bufferViews":[{
		"buffer":0,
		"byteOffset":0,
		"byteLength":14994,
		"target":34963
	},
	{
		"buffer":0,
		"byteOffset":14996,
		"byteLength":96216,
		"target":34962,
		"byteStride":24
	}],
	"buffers":[{
		"uri":"data:application/octet-stream;base64,",
		"byteLength":111212
	}]
}