{
	"scenes":[{
		"nodes":[0]
	}],
	"asset":{
		"version":"2.0",
		"generator":"Created using the official Cinema 4D glTF Exporter 1.000x284978"
	},
	"nodes":[{
		"name":"Default",
		"translation":[0.0,
		0.0,
		0.0],
		"rotation":[0.7071067690849304,
		0.0,
		0.0,
		-0.7071067690849304],
		"scale":[1.0,
		1.0,
		1.0],
		"mesh":0
	}],
	"accessors":[{
		"bufferView":0,
		"type":"SCALAR",
		"min":[0],
		"componentType":5123,
		"count":2064,
		"byteOffset":0,
		"max":[1378]
	},
	{
		"bufferView":1,
		"type":"VEC3",
		"min":[-10.191381454467774,
		-3.334179401397705,
		0.1124570295214653],
		"componentType":5126,
		"count":1379,
		"byteOffset":0,
		"max":[6.011099815368652,
		-1.5390968322753907,
		2.9920969009399416]
	},
	{
		"bufferView":1,
		"type":"VEC3",
		"min":[-1.0,
		-1.0,
		-1.0],
		"componentType":5126,
		"count":1379,
		"byteOffset":12,
		"max":[1.0,
		1.0,
		1.0]
	}],
	"meshes":[{
		"name":"Default",
		"primitives":[{
			"attributes":{
				"POSITION":1,
				"NORMAL":2
			},
			"indices":0
		}]
	}],
	"bufferViews":[{
		"buffer":0,
		"byteOffset":0,
		"byteLength":4128,
		"target":34963
	},
	{
		"buffer":0,
		"byteOffset":4128,
		"byteLength":33096,
		"target":34962,
		"byteStride":24
	}],
	"buffers":[{
		"uri":"data:application/octet-stream;base64,",
		"byteLength":37224
	}]
}