{
	"asset":{
		"version":"2.0",
		"generator":"Created using the official Cinema 4D glTF Exporter 1.000x284978"
	},
	"scenes":[{
		"nodes":[0]
	}],
	"accessors":[{
		"min":[0],
		"bufferView":0,
		"type":"SCALAR",
		"componentType":5123,
		"count":53376,
		"byteOffset":0,
		"max":[18011]
	},
	{
		"min":[-51.0,
		-50.93016815185547,
		0.0],
		"bufferView":1,
		"type":"VEC3",
		"componentType":5126,
		"count":18012,
		"byteOffset":0,
		"max":[50.5,
		50.93016815185547,
		165.0]
	},
	{
		"min":[-1.0,
		-1.0,
		-1.0],
		"bufferView":1,
		"type":"VEC3",
		"componentType":5126,
		"count":18012,
		"byteOffset":12,
		"max":[1.0,
		1.0,
		1.0]
	},
	{
		"min":[-16.5,
		-15.5],
		"bufferView":1,
		"type":"VEC2",
		"componentType":5126,
		"count":18012,
		"byteOffset":24,
		"max":[14.0,
		17.5]
	}],
	"nodes":[{
		"name":"Default",
		"translation":[0.0,
		0.0,
		0.0],
		"mesh":0,
		"rotation":[0.7071067690849304,
		0.0,
		0.0,
		-0.7071067690849304],
		"scale":[1.0,
		1.0,
		1.0]
	}],
	"meshes":[{
		"name":"Default",
		"primitives":[{
			"attributes":{
				"POSITION":1,
				"NORMAL":2,
				"TEXCOORD_0":3
			},
			"indices":0
		}]
	}],
	"bufferViews":[{
		"buffer":0,
		"byteOffset":0,
		"byteLength":106752,
		"target":34963
	},
	{
		"buffer":0,
		"byteOffset":106752,
		"byteLength":576384,
		"target":34962,
		"byteStride":32
	}],
	"buffers":[{
		"uri":"data:application/octet-stream;base64,",
		"byteLength":683136
	}]
}