{
	"asset":{
		"version":"2.0",
		"generator":"Created using the official Cinema 4D glTF Exporter 1.000x284978"
	},
	"scenes":[{
		"nodes":[0]
	}],
	"nodes":[{
		"name":"空白",
		"translation":[92.541259765625,
		353.43603515625,
		-61.598052978515628],
		"rotation":[0.0,
		0.0,
		0.0,
		-1.0],
		"scale":[1.0,
		1.0,
		1.0],
		"children":[1]
	},
	{
		"name":"大氣觀測",
		"mesh":0,
		"translation":[-46.55215072631836,
		48.245574951171878,
		-1.2341498136520386],
		"rotation":[0.0,
		0.0,
		0.0,
		-1.0],
		"scale":[1.0,
		1.0,
		1.0]
	}],
	"accessors":[{
		"bufferView":0,
		"type":"SCALAR",
		"componentType":5123,
		"count":219795,
		"byteOffset":0,
		"min":[0],
		"max":[41858]
	},
	{
		"bufferView":1,
		"type":"VEC3",
		"componentType":5126,
		"count":41859,
		"byteOffset":0,
		"min":[-802.5623168945313,
		-125.92008209228516,
		-697.060546875],
		"max":[716.96484375,
		166.72354125976563,
		826.2318725585938]
	},
	{
		"bufferView":1,
		"type":"VEC3",
		"componentType":5126,
		"count":41859,
		"byteOffset":12,
		"min":[-1.0,
		-1.0,
		-1.0],
		"max":[1.0,
		1.0,
		1.0]
	},
	{
		"bufferView":1,
		"type":"VEC2",
		"componentType":5126,
		"count":41859,
		"byteOffset":24,
		"min":[0.0,
		0.0],
		"max":[1.0,
		1.0]
	}],
	"meshes":[{
		"name":"大氣觀測",
		"primitives":[{
			"attributes":{
				"POSITION":1,
				"NORMAL":2,
				"TEXCOORD_0":3
			},
			"indices":0
		}]
	}],
	"bufferViews":[{
		"byteLength":439590,
		"buffer":0,
		"byteOffset":0,
		"target":34963
	},
	{
		"byteLength":1339488,
		"buffer":0,
		"byteOffset":439592,
		"target":34962,
		"byteStride":32
	}],
	"buffers":[{
		"uri":"data:application/octet-stream;base64,",
		"byteLength":1779080
	}]
}