{
	"asset":{
		"version":"2.0",
		"generator":"Created using the official Cinema 4D glTF Exporter 1.000x284978"
	},
	"scenes":[{
		"nodes":[0]
	}],
	"buffers":[{
		"uri":"data:application/octet-stream;base64,",
		"byteLength":611668
	}],
	"nodes":[{
		"name":"Satellite_Wing1",
		"scale":[1.0,
		1.0,
		1.0],
		"translation":[0.0,
		17.99384307861328,
		-0.2556004524230957],
		"rotation":[0.0,
		0.0,
		0.0,
		-1.0],
		"mesh":0
	}],
	"meshes":[{
		"name":"Satellite_Wing1",
		"primitives":[{
			"attributes":{
				"NORMAL":2,
				"POSITION":1,
				"TEXCOORD_0":3
			},
			"indices":0
		}]
	}],
	"accessors":[{
		"bufferView":0,
		"type":"SCALAR",
		"count":45690,
		"componentType":5123,
		"byteOffset":0,
		"min":[0],
		"max":[16258]
	},
	{
		"bufferView":1,
		"type":"VEC3",
		"count":16259,
		"componentType":5126,
		"byteOffset":0,
		"min":[-641.05712890625,
		-125.13912200927735,
		-226.38475036621095],
		"max":[641.05712890625,
		124.6279525756836,
		278.5968933105469]
	},
	{
		"bufferView":1,
		"type":"VEC3",
		"count":16259,
		"componentType":5126,
		"byteOffset":12,
		"min":[-1.0,
		-1.0,
		-1.0],
		"max":[1.0,
		1.0,
		1.0]
	},
	{
		"bufferView":1,
		"type":"VEC2",
		"count":16259,
		"componentType":5126,
		"byteOffset":24,
		"min":[0.0,
		0.0],
		"max":[0.998822033405304,
		0.9989989995956421]
	}],
	"bufferViews":[{
		"buffer":0,
		"byteOffset":0,
		"byteLength":91380,
		"target":34963
	},
	{
		"buffer":0,
		"byteOffset":91380,
		"byteLength":520288,
		"target":34962,
		"byteStride":32
	}]
}