{
	"asset":{
		"version":"2.0",
		"generator":"Created using the official Cinema 4D glTF Exporter 1.000x284978"
	},
	"scenes":[{
		"nodes":[0]
	}],
	"nodes":[{
		"name":"Cube_003",
		"scale":[5.362242221832275,
		5.362242221832275,
		5.362242221832275],
		"translation":[0.0,
		1317.3594970703126,
		964.0202026367188],
		"rotation":[4.329780301713277e-17,
		0.7071067690849304,
		0.7071067690849304,
		-4.329780301713277e-17],
		"mesh":0
	}],
	"materials":[{
		"pbrMetallicRoughness":{
			"baseColorFactor":[1.0,
			1.0,
			1.0,
			1.0],
			"metallicFactor":1.0,
			"roughnessFactor":1.0
		},
		"emissiveFactor":[1.0,
		1.0,
		1.0],
		"alphaMode":"OPAQUE",
		"doubleSided":false,
		"name":"PBR"
	}],
	"meshes":[{
		"name":"Cube_003",
		"primitives":[{
			"attributes":{
				"POSITION":1,
				"NORMAL":2,
				"TEXCOORD_0":3
			},
			"indices":0,
			"material":0
		}]
	}],
	"accessors":[{
		"byteOffset":0,
		"bufferView":0,
		"type":"SCALAR",
		"componentType":5123,
		"count":129438,
		"min":[0],
		"max":[46034]
	},
	{
		"byteOffset":0,
		"bufferView":1,
		"type":"VEC3",
		"componentType":5126,
		"count":46035,
		"min":[-32.27163314819336,
		-46.423805236816409,
		-5.628481388092041],
		"max":[32.27163314819336,
		37.93013000488281,
		10.649405479431153]
	},
	{
		"byteOffset":12,
		"bufferView":1,
		"type":"VEC3",
		"componentType":5126,
		"count":46035,
		"min":[-1.0,
		-1.0,
		-1.0],
		"max":[1.0,
		1.0,
		1.0]
	},
	{
		"byteOffset":24,
		"bufferView":1,
		"type":"VEC2",
		"componentType":5126,
		"count":46035,
		"min":[0.0,
		0.0],
		"max":[1.0,
		1.0]
	},
	{
		"byteOffset":0,
		"bufferView":2,
		"type":"SCALAR",
		"componentType":5126,
		"count":111,
		"min":[0.0],
		"max":[3.6666667461395265]
	},
	{
		"byteOffset":444,
		"bufferView":2,
		"type":"VEC3",
		"componentType":5126,
		"count":111,
		"min":[0.0,
		1317.3594970703126,
		852.3873901367188],
		"max":[0.0,
		1317.3594970703126,
		971.7300415039063]
	},
	{
		"byteOffset":0,
		"bufferView":3,
		"type":"SCALAR",
		"componentType":5126,
		"count":111,
		"min":[0.0],
		"max":[3.6666667461395265]
	},
	{
		"byteOffset":444,
		"bufferView":3,
		"type":"VEC4",
		"componentType":5126,
		"count":111,
		"min":[4.329780301713277e-17,
		0.0,
		0.0,
		-0.7071067690849304],
		"max":[0.7071067690849304,
		0.7071067690849304,
		0.7071067690849304,
		-4.329780301713277e-17]
	}],
	"bufferViews":[{
		"buffer":0,
		"byteOffset":0,
		"byteLength":258876,
		"target":34963
	},
	{
		"buffer":0,
		"byteOffset":258876,
		"byteStride":32,
		"byteLength":1473120,
		"target":34962
	},
	{
		"buffer":1,
		"byteOffset":0,
		"byteLength":1776
	},
	{
		"buffer":1,
		"byteOffset":1776,
		"byteLength":2220
	}],
	"buffers":[{
		"uri":"data:application/octet-stream;base64,",
		"byteLength":1731996
	},
	{
		"uri":"data:application/octet-stream;base64,",
		"byteLength":3996
	}],
	"animations":[{
		"samplers":[{
			"input":4,
			"interpolation":"LINEAR",
			"output":5
		},
		{
			"input":6,
			"interpolation":"LINEAR",
			"output":7
		}],
		"channels":[{
			"sampler":0,
			"target":{
				"node":0,
				"path":"translation"
			}
		},
		{
			"sampler":1,
			"target":{
				"node":0,
				"path":"rotation"
			}
		}]
	}]
}